<?xml version="1.0" standalone="no"?>
<!DOCTYPE svg PUBLIC "-//W3C//DTD SVG 1.1//EN" "http://www.w3.org/Graphics/SVG/1.1/DTD/svg11.dtd">
<svg width="1035mm" height="603mm" viewBox="0 -603 1035 603" xmlns="http://www.w3.org/2000/svg" version="1.1">
<title>OpenSCAD Model</title>
<path d="
M 363.536,-303.603 L 368.626,-304.685 L 373.38,-306.801 L 377.59,-309.86 L 381.072,-313.727 L 383.674,-318.234
 L 385.282,-323.183 L 385.826,-328.358 L 385.826,-353.25 L 284.714,-384.366 L 286.185,-389.145 L 385.826,-358.482
 L 385.826,-527.494 L 384.194,-543.02 L 379.37,-557.868 L 371.564,-571.388 L 361.118,-582.99 L 348.488,-592.166
 L 334.226,-598.516 L 318.956,-601.761 L 311.15,-602.17 L 194.821,-602.17 L 185.448,-496.351 L 180.467,-496.792
 L 189.801,-602.17 L 0,-602.17 L 0,-577.278 L 93.345,-577.278 L 93.345,-572.278 L 0,-572.278
 L 0,-427.926 L 87.122,-427.926 L 87.122,-422.926 L 0,-422.926 L 0,-303.466 L 311.15,-303.466
 z
M 627.062,-597.408 L 390.588,-597.408 L 390.588,-566.293 L 508.825,-566.293 L 508.825,-561.293 L 390.588,-561.293
 L 390.588,-36.115 L 508.825,-36.115 L 508.825,-31.115 L 390.588,-31.115 L 390.588,-0 L 627.062,-0
 z
M 843.407,-597.408 L 631.825,-597.408 L 631.825,-566.293 L 737.616,-566.293 L 737.616,-561.293 L 631.825,-561.293
 L 631.825,-36.115 L 737.616,-36.115 L 737.616,-31.115 L 631.825,-31.115 L 631.825,-0 L 843.407,-0
 z
M 1034.86,-597.408 L 848.169,-597.408 L 848.169,-566.293 L 941.514,-566.293 L 941.514,-561.293 L 848.169,-561.293
 L 848.169,-36.115 L 941.514,-36.115 L 941.514,-31.115 L 848.169,-31.115 L 848.169,-0 L 1034.86,-0
 z
M 363.536,-0.136353 L 368.626,-1.21829 L 373.38,-3.33488 L 377.59,-6.39363 L 381.072,-10.2608 L 383.674,-14.7675
 L 385.282,-19.7167 L 385.826,-24.892 L 385.826,-49.784 L 284.714,-80.8996 L 286.185,-85.6785 L 385.826,-55.0154
 L 385.826,-224.028 L 384.194,-239.554 L 379.37,-254.401 L 371.564,-267.921 L 361.118,-279.523 L 348.488,-288.699
 L 334.226,-295.049 L 318.956,-298.295 L 311.15,-298.704 L 194.821,-298.704 L 185.448,-192.884 L 180.467,-193.326
 L 189.801,-298.704 L 0,-298.704 L 0,-273.812 L 93.345,-273.812 L 93.345,-268.812 L 0,-268.812
 L 0,-124.46 L 87.122,-124.46 L 87.122,-119.46 L 0,-119.46 L 0,-0 L 311.15,-0
 z
" stroke="black" fill="lightgray" stroke-width="0.5"/>
</svg>
